<?xml version="1.0" encoding="iso-8859-1"?>
<!-- Uploaded to: SVG Repo, www.svgrepo.com, Generator: SVG Repo Mixer Tools -->
<svg fill="#000000" version="1.1" id="Layer_1" xmlns="http://www.w3.org/2000/svg" xmlns:xlink="http://www.w3.org/1999/xlink" 
	 viewBox="0 0 512 512" xml:space="preserve">
<g>
	<g>
		<path d="M162.214,0v152.096H28.378V512H226.09h30.417h227.115V0H162.214z M226.09,481.583H58.795v-299.07h103.418h63.876V481.583z
			 M453.205,481.583H256.507V152.096h-63.876V30.417h260.574V481.583z"/>
	</g>
</g>
<g>
	<g>
		<rect x="211.308" y="50.695" width="33.966" height="30.417"/>
	</g>
</g>
<g>
	<g>
		<rect x="274.393" y="50.695" width="33.966" height="30.417"/>
	</g>
</g>
<g>
	<g>
		<rect x="337.478" y="50.695" width="33.966" height="30.417"/>
	</g>
</g>
<g>
	<g>
		<rect x="400.564" y="50.695" width="33.966" height="30.417"/>
	</g>
</g>
<g>
	<g>
		<rect x="211.308" y="101.401" width="33.966" height="30.417"/>
	</g>
</g>
<g>
	<g>
		<rect x="274.393" y="101.401" width="33.966" height="30.417"/>
	</g>
</g>
<g>
	<g>
		<rect x="337.478" y="101.401" width="33.966" height="30.417"/>
	</g>
</g>
<g>
	<g>
		<rect x="400.564" y="101.401" width="33.966" height="30.417"/>
	</g>
</g>
<g>
	<g>
		<rect x="274.393" y="152.096" width="33.966" height="30.417"/>
	</g>
</g>
<g>
	<g>
		<rect x="337.478" y="152.096" width="33.966" height="30.417"/>
	</g>
</g>
<g>
	<g>
		<rect x="400.564" y="152.096" width="33.966" height="30.417"/>
	</g>
</g>
<g>
	<g>
		<rect x="274.393" y="202.791" width="33.966" height="30.417"/>
	</g>
</g>
<g>
	<g>
		<rect x="337.478" y="202.791" width="33.966" height="30.417"/>
	</g>
</g>
<g>
	<g>
		<rect x="400.564" y="202.791" width="33.966" height="30.417"/>
	</g>
</g>
<g>
	<g>
		<rect x="274.393" y="253.497" width="33.966" height="30.417"/>
	</g>
</g>
<g>
	<g>
		<rect x="337.478" y="253.497" width="33.966" height="30.417"/>
	</g>
</g>
<g>
	<g>
		<rect x="400.564" y="253.497" width="33.966" height="30.417"/>
	</g>
</g>
<g>
	<g>
		<rect x="274.393" y="304.192" width="33.966" height="30.417"/>
	</g>
</g>
<g>
	<g>
		<rect x="337.478" y="304.192" width="33.966" height="30.417"/>
	</g>
</g>
<g>
	<g>
		<rect x="400.564" y="304.192" width="33.966" height="30.417"/>
	</g>
</g>
<g>
	<g>
		<rect x="274.393" y="354.887" width="33.966" height="30.417"/>
	</g>
</g>
<g>
	<g>
		<rect x="337.478" y="354.887" width="33.966" height="30.417"/>
	</g>
</g>
<g>
	<g>
		<rect x="400.564" y="354.887" width="33.966" height="30.417"/>
	</g>
</g>
<g>
	<g>
		<rect x="274.393" y="405.583" width="33.966" height="30.417"/>
	</g>
</g>
<g>
	<g>
		<rect x="337.478" y="405.583" width="33.966" height="30.417"/>
	</g>
</g>
<g>
	<g>
		<rect x="400.564" y="405.583" width="33.966" height="30.417"/>
	</g>
</g>
<g>
	<g>
		<rect x="78.709" y="202.791" width="54.244" height="30.417"/>
	</g>
</g>
<g>
	<g>
		<rect x="151.934" y="202.791" width="54.244" height="30.417"/>
	</g>
</g>
<g>
	<g>
		<rect x="78.709" y="253.497" width="54.244" height="30.417"/>
	</g>
</g>
<g>
	<g>
		<rect x="151.934" y="253.497" width="54.244" height="30.417"/>
	</g>
</g>
<g>
	<g>
		<rect x="78.709" y="304.192" width="54.244" height="30.417"/>
	</g>
</g>
<g>
	<g>
		<rect x="151.934" y="304.192" width="54.244" height="30.417"/>
	</g>
</g>
<g>
	<g>
		<rect x="78.709" y="354.887" width="54.244" height="30.417"/>
	</g>
</g>
<g>
	<g>
		<rect x="151.934" y="354.887" width="54.244" height="30.417"/>
	</g>
</g>
<g>
	<g>
		<rect x="78.709" y="405.583" width="54.244" height="30.417"/>
	</g>
</g>
<g>
	<g>
		<rect x="151.934" y="405.583" width="54.244" height="30.417"/>
	</g>
</g>
</svg>