<?xml version="1.0" encoding="iso-8859-1"?>
<!-- Uploaded to: SVG Repo, www.svgrepo.com, Generator: SVG Repo Mixer Tools -->
<svg fill="#000000" height="800px" width="800px" version="1.1" id="Layer_1" xmlns="http://www.w3.org/2000/svg" xmlns:xlink="http://www.w3.org/1999/xlink" 
	 viewBox="0 0 512 512" xml:space="preserve">
<g>
	<g>
		<circle cx="372.364" cy="197.818" r="23.273"/>
	</g>
</g>
<g>
	<g>
		<circle cx="139.636" cy="197.818" r="23.273"/>
	</g>
</g>
<g>
	<g>
		<path d="M477.091,34.909H256H34.909C15.127,34.909,0,50.036,0,69.818v256c0,19.782,15.127,34.909,34.909,34.909H256h221.091
			c19.782,0,34.909-15.127,34.909-34.909v-256C512,50.036,496.873,34.909,477.091,34.909z M488.727,325.818
			c0,6.982-4.655,11.636-11.636,11.636H256H34.909c-6.982,0-11.636-4.655-11.636-11.636v-256c0-6.982,4.655-11.636,11.636-11.636
			H256h221.091c6.982,0,11.636,4.655,11.636,11.636V325.818z"/>
	</g>
</g>
<g>
	<g>
		<path d="M500.364,372.364c-6.982,0-11.636,4.655-11.636,11.636s-4.655,11.636-11.636,11.636H256H34.909
			c-6.982,0-11.636-4.655-11.636-11.636s-4.655-11.636-11.636-11.636S0,377.018,0,384c0,19.782,15.127,34.909,34.909,34.909H256
			h221.091C496.873,418.909,512,403.782,512,384C512,377.018,507.345,372.364,500.364,372.364z"/>
	</g>
</g>
<g>
	<g>
		<path d="M500.364,430.545c-6.982,0-11.636,4.655-11.636,11.636s-4.655,11.636-11.636,11.636H256H34.909
			c-6.982,0-11.636-4.655-11.636-11.636s-4.655-11.636-11.636-11.636S0,435.2,0,442.182c0,19.782,15.127,34.909,34.909,34.909H256
			h221.091c19.782,0,34.909-15.127,34.909-34.909C512,435.2,507.345,430.545,500.364,430.545z"/>
	</g>
</g>
<g>
	<g>
		<path d="M453.818,104.727c-6.982,0-11.636-4.655-11.636-11.636c0-6.982-4.655-11.636-11.636-11.636H81.455
			c-6.982,0-11.636,4.655-11.636,11.636c0,6.982-4.655,11.636-11.636,11.636s-11.636,4.655-11.636,11.636v162.909
			c0,6.982,4.655,11.636,11.636,11.636s11.636,4.655,11.636,11.636s4.655,11.636,11.636,11.636h349.091
			c6.982,0,11.636-4.655,11.636-11.636s4.655-11.636,11.636-11.636s11.636-4.655,11.636-11.636V116.364
			C465.455,109.382,460.8,104.727,453.818,104.727z M441.018,269.964c-9.309,3.491-16.291,10.473-19.782,20.945H90.764
			c-3.491-10.473-11.636-17.455-20.945-20.945V125.673c10.473-3.491,17.455-11.636,20.945-20.945h329.309
			c3.491,10.473,11.636,17.455,20.945,20.945V269.964z"/>
	</g>
</g>
<g>
	<g>
		<path d="M256,128c-38.4,0-69.818,31.418-69.818,69.818c0,38.4,31.418,69.818,69.818,69.818c38.4,0,69.818-31.418,69.818-69.818
			C325.818,159.418,294.4,128,256,128z M256,244.364c-25.6,0-46.545-20.945-46.545-46.545c0-25.6,20.945-46.545,46.545-46.545
			c25.6,0,46.545,20.945,46.545,46.545C302.545,223.418,281.6,244.364,256,244.364z"/>
	</g>
</g>
</svg>